<?xml version="1.0" encoding="utf-8"?>
<!-- Generator: Adobe Illustrator 18.0.0, SVG Export Plug-In . SVG Version: 6.00 Build 0)  -->
<!DOCTYPE svg PUBLIC "-//W3C//DTD SVG 1.1//EN" "http://www.w3.org/Graphics/SVG/1.1/DTD/svg11.dtd">
<svg version="1.1" id="Layer_1" xmlns="http://www.w3.org/2000/svg" xmlns:xlink="http://www.w3.org/1999/xlink" x="0px" y="0px"
	 viewBox="0 0 420.7 98.7" enable-background="new 0 0 420.7 98.7" xml:space="preserve">
<path fill="#FFFFFF" stroke="#231F20" stroke-width="6" stroke-miterlimit="10" d="M79.9,65.3V21.1c0-6.6-5.4-12-12-12H19.6
	c-6.6,0-12,5.4-12,12v48.3c0,6.6,5.4,12,12,12h48.1l23.9,9.9L79.9,65.3z"/>
<g>
	<path d="M105.1,85.9c-4.4,0-7.7-1.5-9.9-4.4c-2.2-2.9-3.4-7.3-3.4-13.1v-25h7V67c0,8.5,3,12.8,8.9,12.8c2.9,0,5.6-0.9,8.1-2.8
		c2.5-1.8,4.4-4.4,5.6-7.6V43.3h7v33.1c0,1.7,0.7,2.5,2.2,2.6v6.1c-0.6,0.1-1.1,0.2-1.6,0.2c-0.5,0.1-0.9,0.1-1.2,0.1
		c-1.6,0-2.9-0.4-3.8-1.2c-0.9-0.8-1.4-1.8-1.5-3.1l-0.2-5c-1.9,3.1-4.3,5.6-7.4,7.2C112,85,108.7,85.9,105.1,85.9z"/>
	<path d="M155.1,85.9c-3.1,0-6-0.6-8.6-1.8c-2.6-1.2-4.8-2.7-6.6-4.7c-1.8-2-3.3-4.3-4.3-6.9c-1-2.6-1.5-5.4-1.5-8.2
		c0-2.9,0.5-5.7,1.6-8.3c1-2.6,2.5-4.9,4.3-6.9c1.8-2,4.1-3.5,6.6-4.7c2.6-1.2,5.4-1.8,8.5-1.8c3.1,0,5.9,0.6,8.6,1.8
		c2.6,1.2,4.8,2.7,6.7,4.7c1.8,2,3.3,4.3,4.3,6.9c1,2.6,1.6,5.4,1.6,8.3c0,2.9-0.5,5.6-1.5,8.2c-1,2.6-2.5,4.9-4.3,6.9
		c-1.9,2-4.1,3.5-6.7,4.7C161.2,85.3,158.3,85.9,155.1,85.9z M141.3,64.3c0,2.2,0.4,4.2,1.1,6.1c0.7,1.9,1.7,3.5,3,4.9
		c1.3,1.4,2.7,2.5,4.4,3.3s3.5,1.2,5.4,1.2s3.7-0.4,5.4-1.2c1.7-0.8,3.2-1.9,4.4-3.3c1.3-1.4,2.3-3.1,3-5c0.7-1.9,1.1-3.9,1.1-6.1
		c0-2.1-0.4-4.1-1.1-6c-0.7-1.9-1.7-3.5-3-5c-1.3-1.4-2.8-2.5-4.4-3.3c-1.7-0.8-3.5-1.2-5.4-1.2s-3.7,0.4-5.4,1.2
		c-1.7,0.8-3.1,1.9-4.4,3.4c-1.3,1.4-2.2,3.1-3,5C141.7,60.1,141.3,62.2,141.3,64.3z"/>
	<path d="M201.9,83c-0.4,0.2-1,0.5-1.7,0.8c-0.7,0.3-1.5,0.6-2.4,0.9c-0.9,0.3-1.8,0.5-2.9,0.7c-1,0.2-2.1,0.3-3.2,0.3
		c-2.6,0-4.8-0.7-6.6-2.1c-1.9-1.4-2.8-3.6-2.8-6.6V48.8h-5.7v-5.5h5.7V29.4h7v13.9h9.4v5.5h-9.4v25.9c0.1,1.5,0.6,2.7,1.5,3.4
		c0.9,0.7,2,1,3.2,1c1.4,0,2.7-0.2,3.8-0.7c1.1-0.5,1.9-0.8,2.4-1.1L201.9,83z"/>
	<path d="M223,85.9c-3.1,0-6-0.6-8.6-1.7c-2.6-1.1-4.9-2.7-6.7-4.7c-1.9-2-3.3-4.3-4.4-6.9s-1.6-5.4-1.6-8.4c0-2.9,0.5-5.7,1.6-8.3
		c1-2.6,2.5-4.9,4.4-6.9c1.9-2,4.1-3.5,6.8-4.7c2.6-1.1,5.5-1.7,8.6-1.7c3.1,0,6,0.6,8.6,1.8c2.6,1.2,4.8,2.7,6.6,4.7
		c1.8,1.9,3.2,4.2,4.2,6.8c1,2.6,1.5,5.3,1.5,8c0,0.6,0,1.1,0,1.6c0,0.5-0.1,0.9-0.1,1.1h-34.6c0.2,2.1,0.6,4,1.4,5.7
		c0.8,1.7,1.8,3.2,3.1,4.4c1.3,1.2,2.7,2.2,4.4,2.9c1.6,0.7,3.3,1,5.2,1c1.3,0,2.5-0.2,3.8-0.5c1.2-0.3,2.4-0.8,3.4-1.4
		c1.1-0.6,2-1.3,2.8-2.2c0.8-0.9,1.5-1.8,1.9-2.9l6.1,1.7c-0.7,1.5-1.6,3-2.8,4.2c-1.2,1.3-2.6,2.4-4.2,3.3
		c-1.6,0.9-3.3,1.7-5.2,2.2S225.1,85.9,223,85.9z M237.3,61.4c-0.2-2-0.7-3.8-1.5-5.5c-0.8-1.7-1.9-3.1-3.1-4.3
		c-1.3-1.2-2.7-2.1-4.4-2.8c-1.7-0.7-3.4-1-5.3-1c-1.9,0-3.6,0.3-5.3,1c-1.7,0.7-3.1,1.6-4.4,2.8c-1.3,1.2-2.3,2.6-3,4.3
		c-0.8,1.7-1.2,3.5-1.4,5.4H237.3z"/>
	<path fill="#ED1C24" d="M291,70.3c0,2-0.4,3.8-1.1,5.6c-0.7,1.8-1.8,3.3-3,4.7c-1.3,1.4-2.8,2.4-4.5,3.2c-1.7,0.8-3.6,1.2-5.5,1.2
		h-26.3V28.3h25.1c2,0,3.8,0.4,5.4,1.3c1.6,0.9,3,2,4.1,3.3c1.1,1.4,2,2.9,2.6,4.6c0.6,1.7,0.9,3.5,0.9,5.2c0,2.9-0.7,5.5-2.2,7.9
		c-1.5,2.4-3.5,4.2-6,5.3c1.6,0.5,3.1,1.2,4.4,2.2c1.3,1,2.4,2.1,3.4,3.4c0.9,1.3,1.6,2.7,2.1,4.2S291,68.7,291,70.3z M252.1,29.9
		v25.8h23c1.8,0,3.4-0.4,4.8-1.1c1.4-0.7,2.7-1.7,3.7-3c1-1.2,1.9-2.6,2.4-4.1c0.6-1.5,0.9-3.1,0.9-4.7c0-1.7-0.3-3.3-0.8-4.9
		c-0.6-1.5-1.3-2.9-2.3-4.1c-1-1.2-2.2-2.1-3.6-2.8c-1.4-0.7-2.9-1-4.6-1H252.1z M289.4,70.3c0-1.7-0.3-3.3-0.9-4.9
		c-0.6-1.6-1.5-3-2.5-4.2c-1.1-1.2-2.3-2.2-3.8-2.9c-1.5-0.7-3.1-1.1-4.8-1.1h-25.3v26.2h24.7c1.8,0,3.4-0.4,4.9-1.1
		c1.5-0.7,2.9-1.7,4-3c1.1-1.2,2-2.6,2.7-4.2C289.1,73.6,289.4,72,289.4,70.3z"/>
	<path fill="#ED1C24" d="M315.1,85.9c-2.7,0-5.3-0.6-7.7-1.7c-2.4-1.1-4.5-2.7-6.3-4.6c-1.8-1.9-3.2-4.2-4.2-6.8
		c-1-2.6-1.6-5.4-1.6-8.2c0-2.9,0.5-5.7,1.6-8.3c1-2.6,2.5-4.9,4.3-6.8c1.8-2,3.9-3.5,6.3-4.7c2.4-1.1,4.9-1.7,7.6-1.7
		c2.7,0,5.2,0.6,7.6,1.7c2.4,1.1,4.5,2.7,6.3,4.7c1.8,2,3.2,4.3,4.3,6.8c1.1,2.6,1.6,5.3,1.6,8.3c0,2.9-0.5,5.6-1.6,8.2
		c-1,2.6-2.5,4.9-4.2,6.8c-1.8,1.9-3.9,3.5-6.3,4.6C320.3,85.3,317.8,85.9,315.1,85.9z M296.9,64.6c0,2.7,0.5,5.2,1.4,7.6
		c1,2.4,2.3,4.5,3.9,6.3c1.6,1.8,3.5,3.2,5.7,4.2c2.2,1,4.5,1.6,7,1.6c2.5,0,4.8-0.5,7-1.6c2.2-1.1,4.2-2.5,5.8-4.3
		c1.7-1.8,3-3.9,4-6.3c1-2.4,1.4-5,1.4-7.7c0-2.7-0.5-5.2-1.4-7.6c-1-2.4-2.3-4.5-3.9-6.3c-1.7-1.8-3.6-3.3-5.8-4.3
		c-2.2-1.1-4.5-1.6-7-1.6s-4.8,0.5-7,1.6c-2.2,1.1-4.1,2.5-5.8,4.4c-1.7,1.8-3,4-3.9,6.4C297.4,59.3,296.9,61.9,296.9,64.6z"/>
	<path fill="#ED1C24" d="M358.4,85.9c-2.7,0-5.3-0.6-7.7-1.7c-2.4-1.1-4.5-2.7-6.3-4.6c-1.8-1.9-3.2-4.2-4.2-6.8
		c-1-2.6-1.6-5.4-1.6-8.2c0-2.9,0.5-5.7,1.6-8.3c1-2.6,2.5-4.9,4.3-6.8c1.8-2,3.9-3.5,6.3-4.7c2.4-1.1,4.9-1.7,7.6-1.7
		s5.2,0.6,7.6,1.7c2.4,1.1,4.5,2.7,6.3,4.7c1.8,2,3.2,4.3,4.3,6.8c1.1,2.6,1.6,5.3,1.6,8.3c0,2.9-0.5,5.6-1.6,8.2
		c-1,2.6-2.5,4.9-4.2,6.8c-1.8,1.9-3.9,3.5-6.3,4.6C363.7,85.3,361.1,85.9,358.4,85.9z M340.3,64.6c0,2.7,0.5,5.2,1.4,7.6
		s2.3,4.5,3.9,6.3c1.6,1.8,3.5,3.2,5.7,4.2c2.2,1,4.5,1.6,7,1.6c2.5,0,4.8-0.5,7-1.6c2.2-1.1,4.2-2.5,5.8-4.3c1.7-1.8,3-3.9,4-6.3
		s1.4-5,1.4-7.7c0-2.7-0.5-5.2-1.4-7.6c-1-2.4-2.3-4.5-3.9-6.3c-1.7-1.8-3.6-3.3-5.8-4.3c-2.2-1.1-4.5-1.6-7-1.6s-4.8,0.5-7,1.6
		c-2.2,1.1-4.1,2.5-5.8,4.4c-1.7,1.8-3,4-3.9,6.4C340.7,59.3,340.3,61.9,340.3,64.6z"/>
	<path fill="#ED1C24" d="M415.5,85.1l-17.7-23.8l-11.3,10.2v13.5h-1.6V26.7h1.6v42.7l28.3-25.7h2.2l-18,16.5l18.4,24.9H415.5z"/>
</g>
<g>
	<path fill="#ED1C24" d="M42,37.9c-1.8,6.7-5.3,15.3-7.4,19l-4.5,0.6c1.7-4.7,3.8-13,4.7-18.8L42,37.9z M53.8,37.9
		c-1.8,6.7-5.3,15.3-7.4,19l-4.5,0.6c1.8-4.7,3.8-13,4.7-18.8L53.8,37.9z"/>
</g>
</svg>
